# AST/ASF file generated using VICON BodyLanguage
# -----------------------------------------------
:version 1.10
:name VICON
:units
  mass 1.0
  length 0.45
  angle deg
:documentation
   .ast/.asf automatically generated from VICON data using
   VICON BodyBuilder and BodyLanguage model FoxedUp or BRILLIANT.MOD
:root
   order TX TY TZ RX RY RZ
   axis XYZ
   position 0 0 0  
   orientation 0 -0 0 
:bonedata
  begin
     id 1 
     name lhipjoint
     direction 0.515797 -0.759363 0.396637 
     length 2.47888 
     axis 0 -0 0  XYZ
  end
  begin
     id 2 
     name lfemur
     direction 0.34202 -0.939693 0  
     length 6.81885  
     axis 0 -0 20  XYZ
    dof rx ry rz
    limits (-160.0 20.0)
           (-70.0 70.0)
           (-60.0 70.0)
  end
  begin
     id 3 
     name ltibia
     direction 0.342037 -0.939687 0   
     length 7.89258   
     axis 0 -0 20   XYZ
    dof rx
    limits (-10.0 170.0)
  end
  begin
     id 4 
     name lfoot
     direction 0.173497 -0.476678 0.861787   
     length 2.51543   
     axis -90 -1.13533e-015 20   XYZ
    dof rx rz
    limits (-45.0 90.0)
           (-70.0 20.0)
  end
  begin
     id 5 
     name ltoes
     direction 1.53564e-011 -4.21897e-011 1   
     length 1.21388   
     axis -90 -1.13533e-015 20   XYZ
    dof rx
    limits (-90.0 20.0)
  end
  begin
     id 6 
     name rhipjoint
     direction -0.489454 -0.772941 0.403729   
     length 2.43534  
     axis 0 -0 0  XYZ 
  end
  begin
     id 7 
     name rfemur
     direction -0.34202 -0.939693 0   
     length 7.10357   
     axis 0 -0 -20   XYZ
    dof rx ry rz
    limits (-160.0 20.0)
           (-70.0 70.0)
           (-70.0 60.0)
  end
  begin
     id 8 
     name rtibia
     direction -0.34202 -0.939693 0   
     length 9.16127   
     axis 0 -0 -20   XYZ
    dof rx
    limits (-10.0 170.0)
 end
 begin
     id 9 
     name rfoot
     direction -0.270974 -0.748671 0.605033   
     length 1.74894  
     axis -90 1.13533e-015 -20   XYZ
    dof rx rz
    limits (-45.0 90.0)
           (-20.0 70.0)
  end
  begin
     id 10 
     name rtoes
     direction -1.53557e-011 -4.21759e-011 1   
     length 0.787585   
     axis -90 1.13533e-015 -20   XYZ
    dof rx
    limits (-90.0 20.0)
  end
  begin
     id 11 
     name lowerback
     direction -0.0140249 0.999561 0.0260968   
     length 2.16963   
     axis 0 -0 0   XYZ
    dof rx ry rz
    limits (-20.0 45.0)
           (-30.0 30.0)
           (-30.0 30.0)
  end
  begin
     id 12 
     name upperback
     direction 0.00860018 0.999959 -0.002711   
     length 2.1726   
     axis 0 -0 0   XYZ
    dof rx ry rz
    limits (-20.0 45.0)
           (-30.0 30.0)
           (-30.0 30.0)
  end
  begin
     id 13 
     name thorax
     direction 0.015211 0.999782 -0.0143191   
     length 2.17061   
     axis 0 -0 0   XYZ
    dof rx ry rz
    limits (-20.0 45.0)
           (-30.0 30.0)
           (-30.0 30.0)
  end
  begin
     id 14 
     name lowerneck
     direction -0.0140143 0.999447 0.030145   
     length 2.26749   
     axis 0 -0 0   XYZ
    dof rx ry rz
    limits (-20.0 45.0)
           (-30.0 30.0)
           (-30.0 30.0)
  end
  begin
     id 15 
     name upperneck
     direction 0.118062 0.961438 -0.248392   
     length 2.22728   
     axis 0 -0 0   XYZ
    dof rx ry rz
    limits (-20.0 45.0)
           (-30.0 30.0)
           (-30.0 30.0)
  end
  begin
     id 16
     name head
     direction 0.0431885 0.9954 -0.085514  
     length 2.28786  
     axis 0 -0 0   XYZ
    dof rx ry rz
    limits (-20.0 45.0)
           (-30.0 30.0)
           (-30.0 30.0)
  end
  begin
     id 17 
     name lclavicle
     direction 0.912126 0.409548 0.0172323  
     length 4.31571  
     axis 0 -0 0   XYZ
    dof ry rz
    limits (-20.0 10.0)
           (0.0 20.0)
  end
  begin
     id 18 
     name lhumerus
     direction 1 -4.48977e-011 1.93091e-027   
     length 5.13658   
     axis 180 -30 -90   XYZ
    dof rx ry rz
    limits (-60.0 90.0)
           (-90.0 90.0)
           (-90.0 90.0)
  end
  begin
     id 19
     name lradius
     direction 1 -4.48916e-011 6.84018e-027   
     length 3.22473   
     axis 180 -30 -90   XYZ
    dof rx
    limits (-10.0 170.0)
  end
  begin
     id 20
     name lwrist
     direction 1 -4.48987e-011 7.01981e-027   
     length 1.61236   
     axis -4.37994e-015 90 90   XYZ
    dof ry
    limits (-180.0 0.0)
 end
  begin
     id 21 
     name lhand
     direction 1 -4.49037e-011 1.40335e-026   
     length 0.936406   
     axis -8.96029e-015 90 90   XYZ
    dof rx rz
    limits (-90.0 90.0)
           (-45.0 45.0)
  end
  begin
     id 22 
     name lfingers
     direction 1 -4.48886e-011 2.8104e-026   
     length 0.754955   
     axis -1.79203e-014 90 90   XYZ
    dof rx
    limits (0.0 90.0)
  end
  begin
     id 23
     name lthumb
     direction 0.707107 -6.34937e-011 0.707107   
     length 1.08397   
     axis -90 45 -4.48555e-014   XYZ
    dof rx rz
    limits (-45.0 45.0)
           (-45.0 45.0)
  end
  begin
     id 24 
     name rclavicle
     direction -0.947962 0.317997 0.0156638   
     length 4.86918  
     axis 0 -0 0   XYZ 
    dof ry rz
    limits (-10.0 20.0)
           (-20.0 0.0)
  end
  begin
     id 25 
     name rhumerus
     direction -1 -4.48951e-011 2.80534e-018  
     length 5.60911   
     axis 180 30 90   XYZ
    dof rx ry rz
    limits (-90.0 60.0)
           (-90.0 90.0)
           (-90.0 90.0)
  end
  begin
     id 26 
     name rradius
     direction -1 -4.4898e-011 2.11315e-027   
     length 3.38704   
     axis 180 30 90   XYZ
    dof rx
    limits (-10.0 170.0)
  end
  begin
     id 27 
     name rwrist
     direction -1 -4.48933e-011 7.02314e-027   
     length 1.69352   
     axis -4.37994e-015 -90 -90   XYZ
    dof ry
    limits (-180.0 0.0)
  end
  begin
     id 28
     name rhand
     direction -1 -4.48937e-011 1.40458e-026   
     length 0.755878   
     axis -8.96029e-015 -90 -90   XYZ
    dof rx rz
    limits (-90.0 90.0)
           (-45.0 45.0)
  end
  begin
     id 29
     name rfingers
     direction -1 -4.4901e-011 2.80737e-026   
     length 0.609409   
     axis -1.79203e-014 -90 -90   XYZ
    dof rx
    limits (0.0 90.0)
  end
  begin
     id 30
     name rthumb
     direction -0.707107 -6.34968e-011 0.707107   
     length 0.874992   
     axis -90 -45 4.48555e-014   XYZ
    dof rx rz
    limits (-45.0 45.0)
           (-45.0 45.0)
  end
:hierarchy
  begin
    root lhipjoint rhipjoint lowerback
    lhipjoint lfemur
    lfemur ltibia
    ltibia lfoot
    lfoot ltoes
    rhipjoint rfemur
    rfemur rtibia
    rtibia rfoot
    rfoot rtoes
    lowerback upperback
    upperback thorax
    thorax lowerneck lclavicle rclavicle
    lowerneck upperneck
    upperneck head
    lclavicle lhumerus
    lhumerus lradius
    lradius lwrist
    lwrist lhand lthumb
    lhand lfingers
    rclavicle rhumerus
    rhumerus rradius
    rradius rwrist
    rwrist rhand rthumb
    rhand rfingers
  end

#!OML:ASF C:\ViconDB\ViconDB\414\Spring2016\041811\Spring2016.ASF
:FULLY-SPECIFIED
:DEGREES
139
root 8.66813 19.0548 -11.6676 4.13428 -69.1852 361.23
lowerback 1.17873 -4.20224 -9.21443
upperback -1.61858 -5.84379 -0.641108
thorax -1.50038 -2.80752 4.5683
lowerneck -14.9417 -4.62227 -15.5998
upperneck 25.713 -9.07032 20.6802
head 12.7589 -3.58058 9.46194
rclavicle 8.63222e-014 3.97569e-014
rhumerus -42.9266 -16.6885 4.56188
rradius 36.1768
rwrist 28.0803
rhand -35.2902 -17.6557
rfingers 7.12502
rthumb -8.42489 -47.4677
lclavicle 8.63222e-014 3.97569e-014
lhumerus -22.9801 -2.01855 4.76467
lradius 34.919
lwrist -17.6257
lhand -31.8785 18.1499
lfingers 7.12502
lthumb -5.13141 48.0678
rfemur 163.339 25.0753 185.242
rtibia 34.0766
rfoot -59.5109 -65.1602
rtoes 14.3585
lfemur 1.24737 -11.5638 -5.4521
ltibia 20.3253
lfoot -16.4796 14.7952
ltoes -9.79422
140
root 8.68306 19.1111 -11.645 4.78786 -70.9491 360.876
lowerback 1.04517 -4.38508 -9.36115
upperback -1.45457 -6.06174 -0.530889
thorax -1.19619 -2.93279 4.7389
lowerneck -15.1187 -4.77017 -15.6555
upperneck 25.4761 -9.23292 20.7194
head 12.7495 -3.64955 9.44136
rclavicle -2.04748e-014 -2.14687e-014
rhumerus -43.3154 -16.6457 3.91301
rradius 36.5437
rwrist 27.2423
rhand -35.264 -18.405
rfingers 7.12502
rthumb -8.39959 -48.2179
lclavicle -2.04748e-014 -2.14687e-014
lhumerus -23.3763 -1.29149 5.65081
lradius 34.7223
lwrist -17.0557
lhand -31.8444 18.6578
lfingers 7.12502
lthumb -5.09847 48.5764
rfemur 164.999 27.5805 185.921
rtibia 33.0835
rfoot -68.1722 -64.6897
rtoes 15.5977
lfemur 0.532634 -13.599 -5.78704
ltibia 19.1657
lfoot -16.7433 14.1874
ltoes -10.2818
141
root 8.70417 19.1562 -11.6154 5.97371 -72.6571 360.055
lowerback 1.00345 -4.5681 -9.37457
upperback -1.46464 -6.29817 -0.371979
thorax -1.1287 -3.0527 4.90302
lowerneck -15.2204 -4.89898 -15.8709
upperneck 25.3908 -9.46128 21.0266
head 12.8296 -3.75092 9.57754
rclavicle 3.84648e-014 5.56597e-015
rhumerus -43.7696 -16.3186 3.39004
rradius 36.6264
rwrist 27.0465
rhand -35.4258 -17.7715
rfingers 7.12502
rthumb -8.55569 -47.5782
lclavicle 3.84648e-014 5.56597e-015
lhumerus -23.9752 -1.78407 6.71901
lradius 34.8128
lwrist -15.636
lhand -31.6703 18.6878
lfingers 7.12502
lthumb -4.93038 48.6104
rfemur 166.825 30.6973 186.926
rtibia 32.1127
rfoot -77.7703 -63.8355
rtoes 16.9568
lfemur -0.804378 -15.5331 -5.87867
ltibia 18.8251
lfoot -17.6264 12.9063
ltoes -10.9543
142
root 8.72577 19.2045 -11.5754 7.68521 -74.4707 358.644
lowerback 0.907537 -4.65647 -9.26622
upperback -1.3881 -6.39436 -0.199003
thorax -0.971437 -3.11064 5.00712
lowerneck -15.405 -5.05244 -15.9576
upperneck 25.3077 -9.72132 21.2423
head 12.9254 -3.85624 9.64208
rclavicle 1.01579e-013 2.46493e-014
rhumerus -44.411 -16.2331 3.06005
rradius 36.7212
rwrist 27.5731
rhand -35.146 -17.2011
rfingers 7.12502
rthumb -8.28566 -47.0186
lclavicle 1.01579e-013 2.46493e-014
lhumerus -24.1127 -1.7885 7.76619
lradius 34.2621
lwrist -15.3684
lhand -31.2334 18.6326
lfingers 7.12502
lthumb -4.50851 48.5647
rfemur 168.737 35.0817 188.314
rtibia 31.1808
rfoot -89.094 -62.2168
rtoes 19.1476
lfemur -2.54465 -17.051 -5.86837
ltibia 19.3333
lfoot -18.946 10.8207
ltoes -11.8048
143
root 8.75396 19.251 -11.5304 9.88321 -76.2866 356.781
lowerback 1.04573 -4.70741 -9.08773
upperback -1.4629 -6.47619 -0.0838848
thorax -1.11973 -3.1437 5.04453
lowerneck -15.3655 -5.14129 -15.9808
upperneck 25.257 -10.0015 21.592
head 12.9978 -3.97075 9.75328
rclavicle 3.95581e-014 -3.18055e-015
rhumerus -45.1022 -16.3312 2.91665
rradius 36.4381
rwrist 28.7746
rhand -34.8699 -16.5223
rfingers 7.12502
rthumb -8.01923 -46.3502
lclavicle 3.95581e-014 -3.18055e-015
lhumerus -24.449 -3.61302 8.89189
lradius 34.2526
lwrist -13.9898
lhand -30.6713 18.7444
lfingers 7.12502
lthumb -3.96575 48.6872
rfemur 170.94 41.1547 190.338
rtibia 30.4842
rfoot -101.713 -59.5311
rtoes 21.8625
lfemur -4.75921 -18.5531 -5.7683
ltibia 20.4954
lfoot -20.5385 8.62568
ltoes -12.58
144
root 8.78028 19.2888 -11.4751 12.7935 -78.1369 354.302
lowerback 1.00022 -4.76172 -8.88257
upperback -1.56104 -6.54288 0.0686157
thorax -1.19021 -3.17267 5.09014
lowerneck -15.477 -5.24007 -16.0065
upperneck 25.3965 -10.2701 21.8033
head 13.1697 -4.0859 9.82385
rclavicle 4.01545e-014 -6.36111e-015
rhumerus -45.7503 -16.9372 3.15712
rradius 35.9046
rwrist 30.1487
rhand -34.8021 -15.4452
rfingers 7.12502
rthumb -7.95374 -45.2755
lclavicle 4.01545e-014 -6.36111e-015
lhumerus -24.2854 -3.95803 9.82832
lradius 33.2373
lwrist -14.3753
lhand -30.1434 18.4034
lfingers 7.12502
lthumb -3.45598 48.3551
rfemur 173.859 48.8673 193.401
rtibia 29.9618
rfoot -114.789 -55.6034
rtoes 26.2328
lfemur -7.34387 -19.7399 -5.58577
ltibia 22.111
lfoot -22.0902 6.1403
ltoes -13.0963
